<?xml version="1.0" encoding="utf-8"?>
<svg viewBox="0 0 500 500" xmlns="http://www.w3.org/2000/svg" xmlns:xlink="http://www.w3.org/1999/xlink">
  <defs>
    <path id="path-0" style="fill: none;" d="M 166.252 163.138 C 172.893 158.987 183.804 157.287 188.668 155.666 C 199.542 152.249 210.02 152.766 220.423 150.685 C 240.949 150.062 257.754 147.572 274.595 147.572 C 292.635 146.949 306.362 145.704 320.05 145.704 C 328.649 145.704 334.058 145.081 339.352 145.081 L 339.975 144.458 C 340.439 144.458 340.756 143.836 341.22 143.836"/>
  </defs>
  <g id="g4246" transform="matrix(0.167752, 0, 0, 0.167752, -475.177704, 40.047562)" style="">
    <g>
      <path id="rect4243" d="m3902.8 12.358c-1.0541-0.0058-2.0979 0.0078-3.1266 0.03281-12.23 2.41-18.71 14.11-27.72 21.63-52.05 37.06-90.559 89-137.56 131.4-26.13 23.96-44.541 55.6-73.291 76.73-37.72 40.64-83.31 74.741-114 121.94-30.55 35.17-61.83 69.459-89.28 106.76-14.12 20.17-34.74 36.44-42.88 60.12-32.98 49.59-71.761 93.43-108.03 140.08-10.06 2.5-15.49 12.179-24.15 16.809-18.54 4.52-23.64 26.721-39.83 35.081-19.05 15.89-38.19 40.129-30.4 66.239 15.64 14.14 27.35 36.76 49.6 42.43 12.42-0.12 26.831 4.4206 34.391 14.841 30.76 10.2 57.779 30.979 84.559 49.409 37.57 18.42 69.94 46.15 107.57 64.42 18.17 11.13 36.419 22.04 54.609 33.42 34.11 16.77 62.731 42.1 96.131 59.78 15.04 12.05 33.22 18.221 46.75 32.391 100.7 55.92 207.35 101.09 301.64 168.27 6.07 6.69 17.131 10.449 25.161 5.1391 9.99-14.21-0.42-32.99 7.7-47.82 0.67-40.87-12.101-80.609-17.691-120.57 1.41-18-6.1194-36.141-8.1594-52.781 16.95-6.49 34.14-14.609 52.55-16.609 71.29-13.59 139.66-40.03 210.87-51.93 0.83 6.55 6.5112 10.79 8.2312 16.93-0.64 37.31 11.6 73.33 10.98 110.97 19.02 363.6 31.76 727.34 39.18 1091.2 2.25 15.39 4.75 30.77 6.3 46.28-6.35 22.78 7.7606 45.039 2.5406 67.789 3.69 16.81 5.4488 34.011 6.3188 51.141 11.24 20.42 9.5909 47.82 29.111 63.18 9.37 7.84 19.569-2.4303 26.589-8.5203 13.01-15.2 23.98-33.19 27.4-53.15 13.15 7.81 23.5 34.3 42.17 24.8 5.79-0.39 5.3309-12.74 11.761-9.15 3.91 7 13.039 5.0906 18.759 1.6406 9.04-12.07 16.09-25.64 23.4-38.57 5.2-10.29 15.95-6.5003 24.62-8.6203 10.32 19.07-10.061 29.66-15.911 45.25-2.86 14.12 18.411 22.321 25.841 9.7609 10.51-17.84 37.42-28.601 28.15-53.061-10.81-55.78-20.099-111.92-22.109-168.9-1.98-34.72-7.4503-69.4-0.2203-103.8 1.34-15.86-1.6897-36.879-0.3297-48.819 0.69-22.15-4.6106-44.11-3.5406-66.32-3.35-27.85 5.7906-55.59 2.9406-83.88-6.8-44.46-7.6409-89.701-11.211-134.49-2.95-29.49 5.62-58.63 3.2-88.5-11.82-51.26-9.6003-105.33-14.47-157.48 11.19-55.51-2.3388-110.89-3.6188-166.61-7.07-41.64 2.5588-82.29 1.0188-124.1-2.92-34.7-5.0091-75.299-8.2391-112.57-5.45-37.5 5.0494-74.231 1.9594-111.94-3.42-11.29-5.09-26.55 1.9-36.18 39.76-5.57 79.79-9.401 118.37-21.561 136.92-21.8 276.12-27.56 414.25-34.6 8.3-3.23 13.139-11.849 7.9096-20.189 1.7-31.81 13.671-61.61 11.381-93.63-8.7896-6.35 0.7592-24.601-14.131-25.461-16.32-20.04-42.25-3.4991-61.779-14.289 10.61-21.63 38.75-13.861 54.29-2.2109 15.14 6.57 29.09-6.7894 31.41-21.009 2.12-11.22 17.67 1.2497 23.261-6.6203 8.8696-6.26 2.9488-20.6 10.769-27.53 5.4096-1.81 6.7904-9.6406 2.42-13.091 4.8104-33.79 17.97-66.679 15.77-101.09-6.92-1.1-7.8608-7.1109-8.0408-13.211-8.2296-17.78-33.598-9.98-45.518-21.15 9.9696-6.57 24.01-4.7 36.359-5.75 16.35-2.29 36.58 12.28 51.57-1.3203 8.24-24.65 5.92-52.969 17.85-76.989 9.1304-22.61 8.8304-47.521 16.521-70.541 6.1496-23.86 14.55-46.94 21.25-70.62 7.5904-10.18 10.33-22.699 14.59-34.409 2.18-8.72 15.759-4.4297 16.63-14.68 4.0296-7.35-6.6-8.42-7.7296-13.65 10-0.49 5.1696-16.521-3.5-15.211-9.0304 2.35-6.4696-10.069-8.66-14.959-22.3-19.7-45.979-37.971-70.679-54.691-6.8704-3.3-14.53 1.2003-19.691 5.5703-19.449-7.29-36.91 8.9306-55.99 8.8906-43 3.01-85.71 7.7991-128.4 13.689-32.47 3.8-66.059 1.8206-97.589 11.541-72.07 8.32-141.93 31.35-214.32 35.48-40.92 5.11-82.349 12.5-123.21 17.08-3.94-41.71-1.2003-83.249 0.9797-125.01 12.14-0.75 17.799-19.23 5.1594-24.17-23.75-10.98-47.34-23.539-72.88-30.089-31.07-3.79-63.501-1.8103-93.341 6.9797-42.87 10.69-78.66 37.15-117.38 57.5-5.44 3.28-6.1191 9.7594-11.639 12.359 3.59 6.23 1.2494 12.72-0.8406 19.02 3.95 19.24 9.0403 41.25 2.9203 60.87-1.22 5.02 6.99 9.8991 1.15 13.539-2.86 15.26-1.5597 31.081-3.9297 46.411 2.28 6.23-0.1806 14.82-7.4406 16.15-32.47 11.21-66.241 17.209-99.641 24.439-8.07 2.05-16.11-5.3497-23.95-1.6297-6.9 12.17-23.1 3.9997-33 10.78-31.45 8.66-64.329 8.9409-96.289 14.261-9.67-17.2-2.81-38.411-1.75-57.041-6.28-26.09 2.4203-52.769 2.0203-79.189-6.66-35.8-4.0606-72.501-7.6906-108.38-4.58-14.46 0.2303-33.47-11.78-45.45-8.18-10.92-22.411-13.309-33.041-20.889-5.9238-4.6813-13.754-5.6719-21.133-5.7125z" fill="#bf722e"/>
      <path id="path4" d="m3899.7 12.39c8.23-0.2 17.49 0.33 24.26 5.68 10.63 7.58 24.86 9.97 33.04 20.89 12.01 11.98 7.2 30.99 11.78 45.45 3.63 35.88 1.03 72.58 7.69 108.38 0.4 26.42-8.3 53.1-2.02 79.19-1.06 18.63-7.92 39.84 1.75 57.04 31.96-5.32 64.84-5.6 96.29-14.26 9.9-6.78 26.1 1.39 33-10.78 7.84-3.72 15.88 3.68 23.95 1.63 33.4-7.23 67.17-13.23 99.64-24.44 7.26-1.33 9.72-9.92 7.44-16.15 2.37-15.33 1.07-31.15 3.93-46.41 5.84-3.64-2.37-8.52-1.15-13.54 6.12-19.62 1.03-41.63-2.92-60.87 2.09-6.3 4.43-12.79 0.84-19.02 5.52-2.6 6.2-9.08 11.64-12.36 38.72-20.35 74.51-46.81 117.38-57.5 29.84-8.79 62.27-10.77 93.34-6.98 25.54 6.55 49.13 19.11 72.88 30.09 12.64 4.94 6.98 23.42-5.16 24.17-2.18 41.76-4.92 83.3-0.98 125.01 40.86-4.58 82.29-11.97 123.21-17.08 72.39-4.13 142.25-27.16 214.32-35.48 31.53-9.72 65.12-7.74 97.59-11.54 42.69-5.89 85.4-10.68 128.4-13.69 19.08 0.04 36.54-16.18 55.99-8.89 5.16-4.37 12.82-8.87 19.69-5.57 24.7 16.72 48.38 34.99 70.68 54.69 2.19 4.89-0.37 17.31 8.66 14.96 8.67-1.31 13.5 14.72 3.5 15.21 1.13 5.23 11.76 6.3 7.73 13.65-0.87 10.25-14.45 5.96-16.63 14.68-4.26 11.71-7 24.23-14.59 34.41-6.7 23.68-15.1 46.76-21.25 70.62-7.69 23.02-7.39 47.93-16.52 70.54-11.93 24.02-9.61 52.34-17.85 76.99-14.99 13.6-35.22-0.97-51.57 1.32-12.35 1.05-26.39-0.82-36.36 5.75 11.92 11.17 37.29 3.37 45.52 21.15 0.18 6.1 1.12 12.11 8.04 13.21 2.2 34.41-10.96 67.3-15.77 101.09 4.37 3.45 2.99 11.28-2.42 13.09-7.82 6.93-1.9 21.27-10.77 27.53-5.59 7.87-21.14-4.6-23.26 6.62-2.32 14.22-16.27 27.58-31.41 21.01-15.54-11.65-43.68-19.42-54.29 2.21 19.53 10.79 45.46-5.75 61.78 14.29 14.89 0.86 5.34 19.11 14.13 25.46 2.29 32.02-9.68 61.82-11.38 93.63 5.23 8.34 0.39 16.96-7.91 20.19-138.13 7.04-277.33 12.8-414.25 34.6-38.58 12.16-78.61 15.99-118.37 21.56-6.99 9.63-5.32 24.89-1.9 36.18 3.09 37.71-7.41 74.44-1.96 111.94 3.23 37.27 5.32 77.87 8.24 112.57 1.54 41.81-8.09 82.46-1.02 124.1 1.28 55.72 14.81 111.1 3.62 166.61 4.87 52.15 2.65 106.22 14.47 157.48 2.42 29.87-6.15 59.01-3.2 88.5 3.57 44.79 4.41 90.03 11.21 134.49 2.85 28.29-6.29 56.03-2.94 83.88-1.07 22.21 4.23 44.17 3.54 66.32-1.36 11.94 1.67 32.96 0.33 48.82-7.23 34.4-1.76 69.08 0.22 103.8 2.01 56.98 11.3 113.12 22.11 168.9 9.27 24.46-17.64 35.22-28.15 53.06-7.43 12.56-28.7 4.36-25.84-9.76 5.85-15.59 26.23-26.18 15.91-45.25-8.67 2.12-19.42-1.67-24.62 8.62-7.31 12.93-14.36 26.5-23.4 38.57-5.72 3.45-14.85 5.36-18.76-1.64-6.43-3.59-5.97 8.76-11.76 9.15-18.67 9.5-29.02-16.99-42.17-24.8-3.42 19.96-14.39 37.95-27.4 53.15-7.02 6.09-17.22 16.36-26.59 8.52-19.52-15.36-17.87-42.76-29.11-63.18-0.87-17.13-2.63-34.33-6.32-51.14 5.22-22.75-8.89-45.01-2.54-67.79-1.55-15.51-4.05-30.89-6.3-46.28-7.42-363.83-20.16-727.57-39.18-1091.2 0.62-37.64-11.62-73.66-10.98-110.97-1.72-6.14-7.4-10.38-8.23-16.93-71.21 11.9-139.58 38.34-210.87 51.93-18.41 2-35.6 10.12-52.55 16.61 2.04 16.64 9.57 34.78 8.16 52.78 5.59 39.96 18.36 79.7 17.69 120.57-8.12 14.83 2.29 33.61-7.7 47.82-8.03 5.31-19.09 1.55-25.16-5.14-94.29-67.18-200.94-112.35-301.64-168.27-13.53-14.17-31.71-20.34-46.75-32.39-33.4-17.68-62.02-43.01-96.13-59.78-18.19-11.38-36.44-22.29-54.61-33.42-37.63-18.27-70-46-107.57-64.42-26.78-18.43-53.8-39.21-84.56-49.41-7.56-10.42-21.97-14.96-34.39-14.84-22.25-5.67-33.96-28.29-49.6-42.43-7.79-26.11 11.35-50.35 30.4-66.24 16.19-8.36 21.29-30.56 39.83-35.08 8.66-4.63 14.09-14.31 24.15-16.81 36.27-46.65 75.05-90.49 108.03-140.08 8.14-23.68 28.76-39.95 42.88-60.12 27.45-37.3 58.73-71.59 89.28-106.76 30.69-47.2 76.28-81.3 114-121.94 28.75-21.13 47.16-52.77 73.29-76.73 47-42.4 85.51-94.34 137.56-131.4 9.01-7.52 15.49-19.22 27.72-21.63m3.55 29.91c-13.24 10.17-28.22 19.35-39.32 31.72 12.61 4.4 27.1 5.91 39.84 1.9 5.26-7.11 13.39-11.79 17.06-20.1-1.44-8.09-11.14-10.93-17.58-13.52m-50.36 42.12c-9.68 10.93-20.09 21.49-28.69 33.04 11.16-0.98 26.76 16.14 34.26 2.02 10.08-7.27 15.88-19.02 26.6-25.52-10.28-4.09-20.98-9.85-32.17-9.54m542.61 3.16c-41.68 3.86-80.54 24.02-115.43 44.62 19.37-3.72 39.75-2.83 59.03-3.84 6.99-10.61 19.58-2.1 23.52 6.97 7.43 7.55 9.35-7.18 13.87-10.78 7.82-9.1 19.58-1.42 26.84 4.09 9.46-1.24 2.1-19.04 13.55-17.64 16.96 4.69 34.23 1.76 50.21-4.98 6.08-0.61 22.94-7.56 11.69-12.79-27.31-4.58-55.36-8.2-83.28-5.65m-644.43 194.54c-3.14 7.87-11.25 11.5-17.44 16.54-23.98 29.58-54.6 53.18-72.29 87.67-17.12 19.1-34.82 37.83-51.98 56.95-17.31 10.85-27.24 30.07-42.38 43.73-21.45 29.38-47.52 54.88-68.9 84.1-12.97 10.4-17.93 29.47-33.64 36.49-2.48 11.77-12 19.93-18.6 29.24-25.32 32.53-49.48 65.28-76.9 96.11-24.04 21.01-44.03 46.93-62.96 71.96 7.15 2.86 13.81 7.19 20.92 9.92 21.08 14.17 45.59 20.74 68.06 32.28 25.37 5.11 45.76 21.48 69.83 30 15.43 13.64 38.3 14.49 52.66 29.56 20.56 4.8 34.41 22.32 53.34 29.35 58.17 33.39 109.34 77.19 170.38 103.78 26.64 13.9 50.72 33.12 78.22 45.75 18.88 15.98 44.65 20.46 63.18 36.84 16.96 14.31 36.2 25.13 53.95 38.33 8.9 2.43 18-1.99 26.89-1.39 4.35-7.77 3.95-21.24-2.88-28.23-13.35 1.65-27.84 0.42-40.56 4.45-7.32-1.15-21.11 1.58-19.94-10.24 19.71-1.15 40.68-2.9 59.09-11.31 2.55-10.19-0.61-21.14 0.71-31.62-13.86-0.33-27.03 10.13-40.67 5.82-9.6 4.01-26.6 4.67-30.97-4.95 21.75-3.91 47.23-3.79 67.61-15.5 2.66-9.34-1.66-19.57-0.47-29.28-24.86 0.9-48.01 8.64-72.85 6.25-2.02-4.53 5.96-4.05 8.29-7.01 19.32-6 41.2-4.61 59.34-14.57-3.93-3.79-5.1-8.95-4.58-14.19-27.95-3.42-58.02 11.12-83.71 1.86 27.72-10.99 59.87-10.64 88.52-18.39 7.27-6.24-5.29-20.75 5.36-26.1 14.01-3.14 18.02 14 25.85 21.35 7.95 0.93 16.34 1.6 24.26 0.53 11.98-8.87 27.83-7.43 41.02-13.45 55.45-14.18 112.46-24.5 168.99-34.86 15.3-4.86 31.38-6.48 47.37-6.37 46.22-9.01 92.76-19.44 139.75-26.42 29.44-6.67 60.39-4.96 88.73-15.95 5.12 3.89 11.75 3.4 17.42 0.86 31.09-4.39 61.5-12.96 92.85-15.66 78.56-7.6 157.26-21.12 236.48-21.75 30.18-3.03 60.41-6.32 90.74-6.34 3.31-1.06 0.77-6.97 5.45-6.69 31.72-4.96 64.09-6.32 95.52-12.37 13.48-2.25 7.94-17.84 9.63-27.25-43.12 5.44-85.71 12.27-129.07 13.65-1.81-2.14 0.07-4.82 1.85-6.22 25-6.31 50.73-6.58 75.92-11.83 6.51-0.98 11.27-5.45 14.26-11.01 7.38-3.97-3.86 12.53 3.39 6.76 11.67-2.25 41.3 1.15 38.06-17.22-35.96-4.02-72.42 4.92-108.24 3.56-4.98 3.61-14.77-7.15-6.33-7.9 29.02 0.52 57.61-5.51 86.45-8.47-19.15-14.39-54.52-7.87-65.05-33.22 5.72-12.99 10.24-27.2 21.79-36.33-0.36-5.21-14.04-1.58-8.3-8.65 13.92 1.71 27.55-1.98 39.16-9.65 14.63-4.03 28.51 7.84 43.29 1.66 10.9 2.41 13.44-9.52 14.65-17.26-25.12-0.45-50.12 0.96-75.2-0.27-1.72-3.79 1.93-5.69 5.6-4.12 29.24-6.26 59.94-4.06 89.67-7.3 9.52-1.29 4.85-12.03 7.05-18.51-5.42-4.88-11.72 0.22-17.73 0.14-31.28-0.49-64.37 6.71-94.08 3.41 36.87-10.77 75.62-10.38 113.25-17.56 3.05-8.68 5.93-18.03 5.37-27.26-33.85 1.81-67.43 8.4-101.4 10.34-1.92-0.33-1.22-3.69-0.62-5.09 31.62-7.62 64.34-11.53 96.42-17.54 13.62 2.17 18.15-22.68 8.06-27.13-8.68 12.48-27.83 12.85-41.78 10.07-14.06-2.54-32.58 3.27-43.28-6.98 11.24-6.73 25.33-1.68 37.77-2.3 13.81 3.3 27-3.56 40.94-2.57-1.35-5.75-9.77-6.9-13.77-10.97-10.35-16.5-32.79 6.75-45.03-8.11 5.32-9.27 18.72-0.62 26.48-6.91-6.96-4.98-15.15-7.74-22.39-12.12 0.44-5.02-7.63-12.23 2.17-8.23-6.41-4.32 2.24-9.29 6.2-11.52 26.5-16.38 58.43-19.54 88.89-17.42 6.25-5.05 10.39-12.94 12.71-20.62-18.32 5.45-36.99 10.25-55.81 13.23-4.02 1.54-14.73 3.24-12.96-4.1 21.66-6.62 44.06-11.7 65.11-20.13 12.01-5.33 17.14-18.24 19.59-30.27-28.63 3.41-56.2 17.14-85.53 12.56-3.38-8.65 6.23-6.51 11.16-8.11 27.37-2.21 52.99-12.69 78.15-22.74 4.08-8.09 7.63-19.93 5.92-28.13-27.79 8.14-56.98 15.77-85.77 22.18-6.55 1.14-15.23 5.31-20.85 0.09 1.54-7.83 13.52-1.07 17.48-7.48 31.19-10.24 63.14-18.16 93.86-29.98 2.44-5.79 5.91-13.32 3.34-19.31-35.31 6.91-70.63 19.43-107.04 19.51-5.06 0.76-0.46-5.7 2.19-6.15 37.41-9.6 76.34-15.51 111.09-32.7 1.47-3.25 1.77-6.89 2.28-10.39-33.75 3.65-67.17 13.01-101.22 13.35-5.71-4.94 3.74-8.08 7.85-6.93 32.04-6.26 64.49-11.99 95.95-21.01 1.46-3.62 4.33-7.55 3.75-11.48-24.55-0.02-49.37 3.2-73.72 0.47 22.95-9.01 49.85-9.85 74.67-14.13 5.34-0.37 9.98-9.48 4.43-12.38-7.78 0.24-15.56 0.9-23.3 0.86-50.56 1.81-99.62 18.11-150.24 18.89-64.1 6.67-128.26 13.7-192.44 20.7-64.85 11.31-131.09 8.99-196.03 19.25-54.8 3.75-108.38 14.83-162.82 21.06-39.93 8.96-81.16 5.6-121.04 14.03-28.11 2.25-56.26 6.96-84.35 10.53-59.93 10.38-121.63 11.62-181.05 23.02-31.79 2.47-62.27 12.43-93.56 17.78-10.22 0.05-20.66 1.16-30.41 4.12-3.66 5.57-8.76 12.97-16.68 10.13-9.04-3.64-9.52-14.94-10.32-23.11-18.94-0.4-39.16 14.25-56.66 4.36 17.27-9.33 43.75-8.48 56.71-25.4-4.64-9.93-1.3-18.35 0.65-28.98-19.8 5.86-39.69 14.17-60.79 14.24-2.57-2.64-9.7-7.57-3.57-10.08 22.69-2.23 46.62-8.36 63.93-23.95 2.56-8.65 0.89-18.23 0.72-27.14-9.97-0.89-18.83 7.58-29.01 8.04-12.37 2.23-31.91 16.07-40.7 3.38 20.63-10.21 44.15-13.48 64.38-24.66 9.55-2.36 4.29-14.51 3.8-21.08-17.66 3.29-34.23 14.85-52.88 10.68-0.73-6.43 6.77-7.99 11.58-9.1 13.66-5.29 28.79-8.4 40.01-18.34 0.36-2.4 2.64-10.02-1.49-10.32-8.22 4.78-18.03 5.33-26.78 8.76-5.45 3-19.46-2.58-12.81-9.24 13.39-4.45 28.35-6.94 40.15-15.24-2.18-6.97 3.34-18.68-5.35-22.18-10.08 0-20.16 1.89-30.28 1.72-9.72-7.38 4.81-9.7 10.88-11.92 7.22-2.18 15.67-2.85 22.15-7.03-0.41-5.61 1.05-11.96-0.4-17.51 1.17-13.01-2.3-27.32-3.47-39.27-60.45 54.8-121.69 108.73-178.27 167.9m683.55-143.78c-14.02-3.47-16.18 17.26-29.08 18.3-8.76 3.69-15.18-5.67-21.52-9.65-6.42 8.18-12.13 19.17-22.92 21.83-8.92-3.4-17.61-8.81-24.18-15.44-12.26 1.98-27.35-3.07-37.96 1.79-9.96 2.51-23.34-0.43-31.52 4.56 4.47 36.2 2.62 73.85 8.83 110.02 8.64-2.35 17.44-2.75 26.51-1.88 40.1-6.81 82.32-14.84 122.48-22.57 13.64-20.74 57.07-3.98 63.43-33.57-31.77 8.5-63.91 21.61-97.41 19.91-0.92-2.68 1.46-4.73 3.15-6.44 30.68-6.95 63.12-12.96 90.7-29.06 7.35-1.11 5.85-14.29-1.45-8.44-26.38 2.72-50.9 15.09-77.42 17.05-3.08-2.04-0.29-7.11 2.58-8.1 19.94-5.61 39.46-12.59 59.3-18.45 7.87-4.17 19.09-3.71 23.74-12.42-20.17 3.22-39.55 13.43-60.26 10.53-3.28-1.77-0.34-5.58 1.59-7.21 20.89-5.27 43.14-11.09 59.86-25.79-0.53-6.1-0.92-12.21-0.05-18.3-18.53 8.12-37.17 19.92-58.4 13.33m-623.36-7c-10.37 8.94-20.92 19.05-28.31 30.75 0.18 3.65 5.22 3.64 8.03 4.72 18.44 15.13 34.79-10.76 44.8-23.8-5.55-6.23-15.91-10.22-24.52-11.67m1331.6 31.94c-5.89 9.9-19.36 5.2-28.24 10.57 13.63 12.93 33.48 17.01 50.68 24.08 10.07 0.85 23.57 1.23 25.67 13.84 7-2.02 14.85-0.63 21.56-3.36 2.6-5.86-7.48-2.23-10.2-4.56-11.29-8.84-23.54-16.43-34.41-25.79-8.66-3.94-14.31-16.62-25.06-14.78m-43.8 11.25c-11.94 3.01-26.74 1.49-36.94 6.13 10.23 4.83 19.69 11 29.35 16.85 16.23 9.16 35.15 11.45 51.9 18.51 3.85-2.4 16.16 2.5 16.28-3.62-21.25-10.28-44.15-21.27-60.59-37.87m-1328.7 2.84c-9.93 7.67-16.16 19.09-25.24 27.76-9.76 9.94 13.37 10.86 19.14 8.25 6.61-9.52 18.78-14.63 24.6-24.26-5.64-3.88-12.35-9.23-18.5-11.75m1269 4.27c-16.17-0.64-31.58 4.49-47.65 4.83-2.08 2.92 2.67 0.7 4.17 0.9 19.3 10.49 39.51 20.75 58.55 32.17 14.6 12.1 33.24 0.99 49.77 2.2-12.78-7.36-26.39-13.67-37.73-23.26-8.35-6.45-15.99-17.45-27.11-16.84m-71.56 7.9c-11.04 2.32-24.64 1.45-33.94 6.32 23.06 9.7 45.82 19.85 65.59 35.07 10.09-1.7 20.99 0.84 30.64-2.99-9.91-11.33-24.04-18.05-34.83-28.33-9.64-3.42-15.11-16.07-27.46-10.07m-55.24 8c-13.52 2.64-29.87 2.71-41.57 5.79 19.39 10.17 39.05 23.41 57.3 36.73 13.45-2.51 27.14-3.08 40.74-4.78-14.58-16.49-36.52-30.9-56.47-37.74m-60.04 8.07c-11.81 2.9-25.31 3.53-36.26 6.31 11.27 7.95 24.47 18.28 37.33 25.44 9.59 16.12 30.83 6.61 43.1 4.12-14.59-11.54-25.92-31.6-44.17-35.87m-57.15 8.71c-11.22 1.6-22.45 3.26-33.47 5.68-4.27-3.32-6.97 3.58-2.91 4 9.31 2.45 15.98 10.54 25.33 12.75 9.88 0.01 19.38 8.84 19.12 18.84 10.44-2.92 21.47-2.41 31.99-5 1.49-6.81-8.56-7.59-10.34-13.71-8.57-8.58-18.54-20.28-29.72-22.56m-68.91 10.15c-8.31 1.92-23.92-0.88-29.18 5.22 17.11 10.1 39.11 14.82 52.04 30.24 10.61 0.86 22.21-1.31 31.96-3.45-8.24-6.07-14.59-14.69-24.4-18.36-10.57-3.83-18.26-15.85-30.42-13.65m-998.61 0.82c-16.8 12.18-29.74 28.8-45.54 41.94 4.09 6.72 17.93 6.68 25.22 4.55 13.27-12.02 21.41-28.52 36.17-39.17-1.03-5.7-11.48-4.71-15.85-7.32m944.03 7.24c-8.15 3.68-17.3 2.06-25.74 4.5 14.51 8.02 31.15 16.58 47.09 19.72 0.54 12.28 18.86 5.89 24.46 4.69-14.18-9.65-28.21-27.65-45.81-28.91m-55.76 8.04c-9.33 2.99-21.14 1.16-28.29 8.8 15.79 5.03 29.88 16.73 45.63 23.44 11.03 0.58 24.59-0.55 34.2-4.83-6.87-5.53-16.97-10.7-25.37-15.24-8.3-4.63-15.27-15.52-26.17-12.17m-54.78 12.08c-18.73 6.53-38.77 6.71-58.23 9.46 0.92 2.95 7.37-2.17 9.08 1.7 12.67 9.88 30.22 8.22 44.05 15.75 16.65-0.88 33.47-0.6 50-3.07-14.27-8.7-26.94-25.65-44.9-23.84m-84.83 13.85c-8.79 1.63-17.69 2.32-26.52 3.51-0.08 5.8 8.57 1.46 11.97 3.54 10.17 7.46 26.02 5.33 36.98 12.47 4.21-3.28 12.89-0.6 14.71-4.59-11.63-6.77-23.17-16.79-37.14-14.93m-63.72 7.92c-3.64 2.34-9.57 1.69-11.9 1.71 7.42 6.46 20.12 12.14 30.81 10.97 4.69 2.9 13.23 5.08 18.4 1.9-11.3-6.39-22.7-18.87-37.31-14.58m-741.54 7.83c-11.79 11.78-26.68 21.46-33.74 36.83 7.75-1.92 16.02 10.65 21.99 2.45 9.29-8.16 15.4-19.24 24.21-27.9 6.69-7.19-7.56-9.51-12.46-11.38m700.86 0.08c-7.59 2.51-16.65-0.89-23.51 3.22 12.79 8.53 33.63 17.18 46.32 7.76-9-1.28-13.68-10.97-22.81-10.98m-57.53 6.93c-8.97 3.03-17.84 5.88-27.47 5.72 2.29 5.95 14.12 3.69 15.02 12.08 10.58 0.85 22.73-3.5 33.94-4.91-5.55-5.9-13.97-10.37-21.49-12.89m-68.01 14.15c-10.39 3.55-21.59 3.76-31.91 7.37 6.56 5.31 16.12 2.99 22.83 8.65 11.79-0.75 24.07-4.48 35.31-6.62-5.92-5.58-17.43-9.25-26.23-9.4m-61.53 16.06c-4.67 0.95-11.24 0.49-14.76 3.46 4.03 15.33 22.54 6.65 32.86 3.32-5.45-3.24-11.98-5.23-18.1-6.78m-52.8 11.83c-14.6 3.83-29.44 7.25-44.57 8.14-2.62 4.74 4.81 4.36 7.69 4.94 16.78-4.14 34.76-5.22 52.19-6.42-3.29-2.74-9.91-6.6-15.31-6.66m-507.56 0.94c-4.9 8.88-18.59 10.84-20.2 22.37 8.06-0.92 15.36 3.26 23.22 4.09 6.77-3.99 10.3-11.88 15.16-17.74-5.24-3.26-11.1-9.72-18.18-8.72m421.54 14.38c-18.96 7.17-41.65 4.31-59.32 10.19 23.59 8.13 47.16-1.75 70.65-6.1 1.68-6.38-7.33-4.45-11.33-4.09m-447.8 13.83c-4.3 3.01-10.42 6.07-10.11 12.15 5.96 5.31 14.84 1.54 21.86 4.23 1.3 0.6 11.27-0.55 6.42-3.38-7.77-2.18-9.47-12.78-18.17-13m-33.56 37.87c-8.66 11.64-20.34 20.89-27.87 33.58 4.42 5.39 12.06 1.55 17.75 2.12 13.57 7.06 14.49-11.8 24.47-17.03 2.5-8.82-2.61-22.7-14.35-18.67m-30.69 47.08c-5.75 1.96-5.41 9.96-9.06 13.86-10.19 1.74-20.57 7.53-30.96 4.09-5.51 2.7-7.36 9.5-9.98 14.65 10.74 5.71 22.33 2.24 33.75 8.98 11.55-9.52 20.05-21.75 30.5-32.48 0.28-6.61-10.18-6.19-14.25-9.1m-56.65 42.78c-6.95 14.64-15.77 28.51-23.45 42.49 8.08 8.1 24.53 7.47 30.91-2.65 5.7-9.02 15.11-15.78 18.9-25.8-9.49-3.66-17.15-11.62-26.36-14.04m-35.2 58.98c-9.7 11.06-18.74 23.23-26.12 35.55 16.96 13.49 29.06-12.2 40.01-21.48 9.65-9-6.25-13.02-13.89-14.07m-37.94 51.1c-11.64 11.33-18.69 26.72-31.28 37.06 3.03 3.34 13.54 5.8 16.53-0.74 7.89-10.96 18.1-20.02 27.4-29.58-2.84-3.67-8.23-6.2-12.65-6.74m-41.34 52.15c-10.62 5.81-15.29 18.67-23.79 27-4.42 5.15 5.21 8.57 8.87 6.93 6.92-9.74 13.8-19.73 22.65-27.84 1.39-4.42-4.76-5.09-7.73-6.09m-37.65 45.83c-8.11 8.3-13.75 19.71-25.42 23.69-13.76 15.74-38.57 17.98-46.83 39.18-9.63 4.93-10.36 17.63 1.6 18.83 12.07-9.77 23-21.15 36.64-28.7 3.32-6.61-7.27-8.33-6.24-13.79 6.97-7.72 16.96 0.59 24.87-1.23 6.67-12.05 17.87-20.54 24.9-32.19-2.55-2.7-5.33-6.18-9.52-5.79m1005.4 256.95c-12.65 2.32-24.94 6.38-37.71 8.11 0.78 50.1 14.1 98.98 17.28 149.03 5.61 10.86-5.85-2.08-2.76 5.14 18.55 342.37 30.18 685.06 37.58 1027.7-0.02 29.85 0.91 59.69 5.95 89.17 1.29 52.52 3.16 105.55 15 156.74 1.9 8.27 8.5-2.53 10.32-5.81 15.89-11.68 18.57-38.37 20.96-58.24 5.36-4.91-3.9-10.32-1.79-16.47-6.96-13.42 17.28-20.6 20.02-7.69 5.45 21.82 14.73 44.91 32.85 58.86 13.15-7.65 9.47-25.61 14.52-37.69 4.98-11.23-8.54-6.35-11.76-13.23 16.89-8 34.96-13.47 52.57-19.67 3.67-5.75 6.61-12.47 7.61-19.24-20.16 1.46-38.08 11.23-58.33 12.81-1.82-1.23-3.89-3.49-3.33-5.76 16.85-6.07 33.71-11.46 50.4-18.46 9.73-7.35 25.45-10.19 27.38-24.35-29.96 3.28-57.44 17.4-87.43 19.45 1.91-11.91 18.32-5.76 21.78-11.37 19.39-10.4 42.92-12.62 62.28-24.05 2.79-8.62-8.18-5.92-12.72-6.03-19.21 4.95-38.55 12.07-58.23 13.08-9.06-9.04 14.23-7.7 11.14-11.66 19.07-5.18 39.38-10.4 56.1-19.84 1.6-4.41 0.75-13.08-6.27-9.41-20.61 6.61-41.88 12.99-63.67 12.25-4.08 1.37-7.61-5.57-2.64-6.4 17.08-3.56 33.81-8.89 50.59-13.38 6.9-5.62 23.49-8.09 20.4-20.07 0.75-12.87-10.75-1.76-17.03-4.28-16.38 7.31-34.51 9.93-52.21 12.15-4 0.48-6.92-4.49-1.94-5.63 22.04-8.34 45.83-13.02 66.8-24.35 2.6-7.12 2.48-21.86-9.12-16.21-18.28 4.51-41.79 9.72-56.58 8.96 17.72-16.66 46.23-14.13 65.66-28.04 0.58-2.53-0.28-5.79-0.14-8.09-21.41-0.99-40.96 12.58-62.15 12.21-3.86-10.47 11.26-7.04 16.3-11.69 13.58-7.39 29.25-10.11 42.49-17.69 0.78-5.06 0.21-10.65 1.21-15.82-18.37 1.5-35.73 12.86-54.5 11.62-0.23-7.08 7.63-7.27 12.52-9.37 13.21-6.11 27.51-9.68 40.06-17.23 0.58-5.92 4.45-24.82-6.64-20.43-11.05 4.29-22.91 5.99-34.32 8.92-4.67 2.58-4.92-1.02-4.59-3.47 11.01-7.04 23.31-11.75 35.43-16.72-0.32-6.83 22.42-8.07 17.75-20.84 0.75-12.87-10.75-1.76-17.03-4.28-16.38 7.31-34.51 9.93-52.21 12.15-4 0.48-6.92-4.49-1.94-5.63 22.04-8.34 45.83-13.02 66.8-24.35 2.6-7.12 2.48-21.86-9.12-16.21-18.28 4.51-41.79 9.72-56.58 8.96 17.72-16.66 46.23-14.13 65.66-28.04 0.58-2.54-0.28-5.76-0.14-8.09-21.41-0.99-40.96 12.58-62.15 12.21-3.86-10.47 11.26-7.03 16.3-11.69 13.58-7.39 29.25-10.11 42.49-17.69 0.78-5.06 0.21-10.65 1.21-15.82-18.37 1.5-35.73 12.86-54.5 11.62-0.23-7.08 7.63-7.27 12.52-9.37 13.21-6.11 27.51-9.68 40.06-17.23 0.87-6.71 2.62-16.15-1.94-21.34-12.91 3.31-25.87 7.25-39.02 9.83-5.68 3.44-6.2-4.99-1.87-5.07 13.12-8.24 28.5-11.88 41.18-20.83 11.35 0.29 7.04-11.58 4.62-16.76-24.93 0.59-49.12 12.85-73.88 14.14-5.73-6.05 4.24-9.46 9.08-9.52 19.08-7.53 39.98-10.04 57.97-20.09 9.2 2.33 9.31-17.23-0.19-12.3-20.61 6.61-41.88 12.99-63.67 12.25-4.08 1.37-7.61-5.57-2.64-6.4 17.08-3.56 33.81-8.89 50.59-13.38 6.9-5.62 23.49-8.09 20.4-20.07 0.75-12.87-10.75-1.76-17.03-4.28-16.38 7.31-34.51 9.93-52.21 12.15-4 0.48-6.92-4.49-1.94-5.63 22.04-8.34 45.83-13.02 66.8-24.35 2.22-5.21 0.97-11.27-0.34-16.58-19.61 0.47-38.46 10.09-58.19 8.24-1.53 4.53-11.08 2.88-5.06-1.05 18.32-13.54 43.68-13.23 63.11-25.18 1.62-2.53-0.26-6.26 0.3-8.81-21.41-0.99-40.96 12.58-62.15 12.21-3.86-10.47 11.26-7.03 16.3-11.69 13.58-7.39 29.25-10.11 42.49-17.69 0.78-5.06 0.21-10.64 1.21-15.82-18.37 1.5-35.73 12.86-54.5 11.62-0.23-7.08 7.63-7.27 12.52-9.37 13.21-6.11 27.51-9.68 40.06-17.23 0.87-6.71 2.62-16.15-1.94-21.34-12.91 3.31-25.87 7.25-39.02 9.83-4.89 3.69-6.49-4.33-2.59-4.76 15.43-8.54 32.73-14.52 47.23-23.88 1.47-4.12-2.15-9.67-2.71-13.02-24.93 0.59-49.12 12.85-73.88 14.14-1.41-1.65-2.89-4.61-0.69-6.25 22.07-8.81 46.55-12.22 67.74-23.36 9.2 2.33 9.31-17.22-0.19-12.3-20.61 6.61-41.88 12.99-63.67 12.25-4.08 1.37-7.61-5.57-2.64-6.4 17.08-3.56 33.81-8.89 50.59-13.38 6.9-5.62 23.49-8.09 20.4-20.07 0.75-12.87-10.75-1.76-17.03-4.28-16.38 7.31-34.51 9.94-52.21 12.15-4 0.48-6.92-4.49-1.94-5.63 22.04-8.34 45.83-13.02 66.8-24.35 2.22-5.2 0.97-11.27-0.34-16.58-19.61 0.47-38.46 10.09-58.19 8.24-1.53 4.53-11.08 2.88-5.06-1.05 18.32-13.54 43.68-13.23 63.11-25.18 1.62-2.54-0.25-6.24 0.3-8.81-21.41-0.99-40.96 12.58-62.15 12.21-3.86-10.47 11.26-7.03 16.3-11.69 13.58-7.39 29.25-10.1 42.49-17.69 0.78-5.06 0.21-10.64 1.21-15.82-18.37 1.5-35.73 12.86-54.5 11.62-0.23-7.08 7.63-7.27 12.52-9.37 13.21-6.11 27.51-9.68 40.06-17.23 0.87-6.71 2.62-16.15-1.94-21.34-12.91 3.31-25.87 7.25-39.02 9.83-4.88 3.7-6.49-4.34-2.59-4.76 15.79-8.78 32.91-15.23 49.32-22.65 3.73-4.06-1.58-10.57-1.8-14.25-24.93 0.59-49.12 12.85-73.88 14.14-1.41-1.65-2.89-4.61-0.69-6.25 22.07-8.81 46.55-12.22 67.74-23.36 9.2 2.33 9.31-17.22-0.19-12.3-20.61 6.61-41.88 12.99-63.67 12.25-4.08 1.37-7.61-5.57-2.64-6.4 17.08-3.56 33.81-8.89 50.59-13.38 6.9-5.62 23.49-8.09 20.4-20.07 0.75-12.87-10.75-1.76-17.03-4.28-16.38 7.31-34.51 9.94-52.21 12.15-4 0.48-6.92-4.49-1.94-5.63 22.04-8.34 45.83-13.01 66.8-24.35 2.22-5.2 0.97-11.27-0.34-16.58-19.61 0.47-38.46 10.1-58.19 8.24-1.53 4.53-11.08 2.88-5.06-1.05 18.32-13.54 43.68-13.23 63.11-25.18 1.62-2.55-0.25-6.22 0.3-8.81-21.41-0.99-40.96 12.58-62.15 12.21-3.86-10.47 11.26-7.03 16.3-11.69 13.58-7.39 29.25-10.1 42.49-17.69 0.78-5.05 0.21-10.64 1.21-15.82-18.37 1.5-35.73 12.86-54.5 11.62-0.23-7.08 7.63-7.27 12.52-9.37 13.21-6.11 27.51-9.68 40.06-17.23 0.87-6.71 2.62-16.15-1.94-21.34-12.91 3.31-25.87 7.25-39.02 9.83-4.88 3.71-6.49-4.34-2.59-4.76 16.36-9.08 34.41-15.5 50.81-24.24 2.63-4.13-1.97-10.13-2.29-13.66-24.93 0.59-49.12 12.85-73.88 14.14-1.41-1.65-2.89-4.61-0.69-6.25 22.07-8.81 46.55-12.22 67.74-23.36 9.2 2.33 9.31-17.22-0.19-12.3-20.61 6.61-41.88 12.99-63.67 12.25-4.08 1.37-7.61-5.56-2.64-6.4 17.08-3.56 33.81-8.89 50.59-13.38 6.9-5.62 23.49-8.09 20.4-20.07 0.75-12.87-10.75-1.76-17.03-4.28-16.38 7.31-34.51 9.94-52.21 12.15-4 0.48-6.92-4.49-1.94-5.63 22.04-8.34 45.83-13.01 66.8-24.35 2.22-5.2 0.97-11.27-0.34-16.58-19.61 0.47-38.46 10.1-58.19 8.24-1.53 4.53-11.08 2.88-5.06-1.05 18.32-13.54 43.68-13.23 63.11-25.18 1.62-2.55-0.25-6.2 0.3-8.81-21.41-0.99-40.96 12.59-62.15 12.21-3.86-10.47 11.26-7.02 16.3-11.69 13.58-7.39 29.25-10.1 42.49-17.69 0.78-5.05 0.21-10.64 1.21-15.82-18.37 1.5-35.73 12.86-54.5 11.62-0.23-7.08 7.63-7.27 12.52-9.37 13.21-6.11 27.51-9.68 40.06-17.23 0.87-6.7 2.62-16.15-1.94-21.34-14.26 2.54-31.37 11.93-43.71 8.01 10.29-12.19 31.7-12.86 43.62-24.53 0.24-6.33 1.32-13.96-4.31-18.35-47.08 5.45-95.22 10.71-141.12 22.18m196.27 1343c-2.77 3.29-3.33 9.91-4.29 14.54 9.92 3.08 14.68-16.04 4.29-14.54m-34.81 10.25c-7.38 2.21-15.54 2.84-22.48 5.65 0.67 5.31 3.7 10.71 6.21 15.57 11.98 0.41 18.07-11.99 20.29-22.05l-4.02 0.83z"/>
      <path id="path10" d="m4416.5 86.744c-6.9826-0.05234-13.97 0.19843-20.95 0.83594-41.68 3.86-80.54 24.02-115.43 44.62 19.37-3.72 39.75-2.8306 59.03-3.8406 6.99-10.61 19.58-2.0997 23.52 6.9703 7.43 7.55 9.3488-7.1797 13.869-10.78 7.82-9.1 19.581-1.4194 26.841 4.0906 9.46-1.24 2.1-19.041 13.55-17.641 16.96 4.69 34.229 1.7603 50.209-4.9797 6.08-0.61 22.941-7.5606 11.691-12.791-20.482-3.435-41.382-6.3289-62.33-6.4859zm-483.64 66.747c-5.83 9.51-14.91 16.089-21.75 24.539 7.22-2.18 15.67-2.8497 22.15-7.0297-0.41-5.61 1.05-11.959-0.4-17.509zm-2.35 34.739c-10.08 0-20.16 1.8903-30.28 1.7203-130.56 140.59-259.76 283.83-390.5 424.75-60.44 67.06-123.16 133.11-182.78 200.13 21.08 14.17 45.589 20.74 68.059 32.28 25.37 5.11 45.76 21.48 69.83 30 15.43 13.64 38.301 14.491 52.661 29.561 20.56 4.8 34.409 22.32 53.339 29.35 58.17 33.39 109.34 77.19 170.38 103.78 26.64 13.9 50.719 33.12 78.219 45.75 18.88 15.98 44.651 20.461 63.181 36.841 16.96 14.31 36.2 25.13 53.95 38.33 8.9 2.43 17.999-1.9906 26.889-1.3906 4.35-7.77 3.9503-21.24-2.8797-28.23-13.35 1.65-27.839 0.42-40.559 4.45-7.32-1.15-21.111 1.5794-19.941-10.241 19.71-1.15 40.681-2.8994 59.091-11.309 2.55-10.19-0.6106-21.14 0.7094-31.62-13.86-0.33-27.03 10.13-40.67 5.8203-9.6 4.01-26.6 4.67-30.97-4.95 21.75-3.91 47.231-3.79 67.611-15.5 2.66-9.34-1.6603-19.57-0.4703-29.28-24.86 0.9-48.01 8.64-72.85 6.25-2.02-4.53 5.9606-4.0509 8.2906-7.0109 19.32-6 41.199-4.6088 59.339-14.569-3.93-3.79-5.0997-8.9506-4.5797-14.191-27.95-3.42-58.019 11.119-83.709 1.8594 27.72-10.99 59.869-10.639 88.519-18.389 7.27-6.24-5.2891-20.75 5.3609-26.1 14.01-3.14 18.02 14 25.85 21.35 7.95 0.93 16.339 1.5997 24.259 0.52968 11.98-8.87 27.83-7.43 41.02-13.45 55.45-14.18 112.46-24.499 168.99-34.859 15.3-4.86 31.379-6.4803 47.369-6.3703 46.22-9.01 92.76-19.44 139.75-26.42 29.44-6.67 60.391-4.96 88.731-15.95 5.12 3.89 11.749 3.3994 17.419 0.85936 31.09-4.39 61.5-12.959 92.85-15.659 78.56-7.6 157.26-21.12 236.48-21.75 30.18-3.03 60.409-6.3206 90.739-6.3406 3.31-1.06 0.77-6.969 5.45-6.689 31.72-4.96 64.09-6.3203 95.52-12.37 13.48-2.25 7.9397-17.84 9.6297-27.25-43.12 5.44-85.71 12.27-129.07 13.65-1.81-2.14 0.07-4.8203 1.85-6.2203 25-6.31 50.73-6.5797 75.92-11.83 6.51-0.98 11.271-5.4494 14.261-11.009 7.38-3.97-3.8609 12.529 3.3891 6.7594 11.67-2.25 41.301 1.1497 38.061-17.22-35.96-4.02-72.421 4.9209-108.24 3.5609-4.98 3.61-14.77-7.15-6.3297-7.9 29.02 0.52 57.61-5.5103 86.45-8.4703-19.15-14.39-54.52-7.8703-65.05-33.22 5.72-12.99 10.239-27.2 21.789-36.33-0.36-5.21-14.04-1.58-8.3-8.65 13.92 1.71 27.551-1.98 39.161-9.65 14.63-4.03 28.509 7.8394 43.289 1.6594 10.9 2.41 13.44-9.5194 14.65-17.259-25.12-0.45-50.12 0.95969-75.2-0.27031-1.72-3.79 1.93-5.6903 5.6-4.1203 29.24-6.26 59.94-4.06 89.67-7.3 9.52-1.29 4.85-12.029 7.05-18.509-5.42-4.88-11.72 0.21907-17.73 0.13907-31.28-0.49-64.37 6.7109-94.08 3.4109 36.87-10.77 75.62-10.381 113.25-17.561 3.05-8.68 5.9303-18.029 5.3703-27.259-33.85 1.81-67.43 8.4006-101.4 10.341-1.92-0.33-1.2203-3.6906-0.6203-5.0906 31.62-7.62 64.34-11.531 96.42-17.541 13.62 2.17 18.149-22.68 8.0594-27.13-8.68 12.48-27.83 12.85-41.78 10.07-14.06-2.54-32.58 3.2703-43.28-6.9797 11.24-6.73 25.329-1.68 37.769-2.3 13.81 3.3 27.001-3.5603 40.941-2.5703-1.35-5.75-9.7703-6.9003-13.77-10.97-10.35-16.5-32.79 6.7506-45.03-8.1094 5.32-9.27 18.72-0.62093 26.48-6.9109-6.96-4.98-15.149-7.7388-22.389-12.119 0.44-5.02-7.6312-12.231 2.1688-8.2312-6.41-4.32 2.24-9.2888 6.2-11.519 26.5-16.38 58.431-19.54 88.891-17.42 6.25-5.05 10.389-12.94 12.709-20.62-18.32 5.45-36.989 10.25-55.809 13.23-4.02 1.54-14.729 3.24-12.959-4.1 21.66-6.62 44.059-11.7 65.109-20.13 12.01-5.33 17.141-18.24 19.591-30.27-28.63 3.41-56.201 17.141-85.531 12.561-3.38-8.65 6.2309-6.5109 11.161-8.1109 27.37-2.21 52.99-12.689 78.15-22.739 4.08-8.09 7.6303-19.931 5.9203-28.131-27.79 8.14-56.98 15.771-85.77 22.181-6.55 1.14-15.23 5.3091-20.85 0.0891 1.54-7.83 13.52-1.0697 17.48-7.4797 31.19-10.24 63.139-18.16 93.859-29.98 2.44-5.79 5.9106-13.321 3.3406-19.311-35.31 6.91-70.631 19.431-107.04 19.511-5.06 0.76-0.4594-5.7 2.1906-6.15 37.41-9.6 76.341-15.51 111.09-32.7 1.47-3.25 1.7697-6.8906 2.2797-10.391-33.75 3.65-67.17 13.01-101.22 13.35-5.71-4.94 3.74-8.0797 7.85-6.9297 32.04-6.26 64.49-11.989 95.95-21.009 1.46-3.62 4.33-7.5512 3.75-11.481-24.55-0.02-49.37 3.2003-73.72 0.47031 22.95-9.01 49.85-9.8497 74.67-14.13 5.34-0.37 9.9797-9.4797 4.4297-12.38-7.78 0.24-15.56 0.89938-23.3 0.85938-9.68 5.74-21.37 4.4609-32.02 6.3609-368.28 51.57-736.6 102.83-1104.9 154.21-15.93 3.81-34.879-1.6794-44.609-15.309-10.22 0.05-20.659 1.1588-30.409 4.1188-3.66 5.57-8.7612 12.971-16.681 10.131-9.04-3.64-9.5188-14.941-10.319-23.111-18.94-0.4-39.161 14.251-56.661 4.3609 17.27-9.33 43.751-8.48 56.711-25.4-4.64-9.93-1.3-18.351 0.65-28.981-19.8 5.86-39.691 14.171-60.791 14.241-2.57-2.64-9.7003-7.5697-3.5703-10.08 22.69-2.23 46.62-8.36 63.93-23.95 2.56-8.65 0.8903-18.231 0.7203-27.141-9.97-0.89-18.829 7.5806-29.009 8.0406-12.37 2.23-31.91 16.07-40.7 3.3797 20.63-10.21 44.15-13.479 64.38-24.659 9.55-2.36 4.29-14.511 3.8-21.081-17.66 3.29-34.23 14.851-52.88 10.681-0.73-6.43 6.7697-7.99 11.58-9.1 13.66-5.29 28.789-8.4006 40.009-18.341 0.36-2.4 2.6409-10.02-1.4891-10.32-8.22 4.78-18.03 5.3309-26.78 8.7609-5.45 3-19.461-2.5806-12.811-9.2406 13.39-4.45 28.35-6.9406 40.15-15.241-2.18-6.97 3.34-18.68-5.35-22.18z" fill="#d5c297"/>
    </g>
    <path id="path12" d="m3929.4 114.22c-60.45 54.8-121.69 108.73-178.27 167.9-3.14 7.87-11.251 11.499-17.441 16.539-23.98 29.58-54.601 53.18-72.291 87.67-17.12 19.1-34.82 37.83-51.98 56.95-17.31 10.85-27.24 30.07-42.38 43.73-21.45 29.38-47.52 54.88-68.9 84.1-12.97 10.4-17.931 29.471-33.641 36.491-2.48 11.77-12 19.931-18.6 29.241-25.32 32.53-49.48 65.279-76.9 96.109-24.04 21.01-44.029 46.929-62.959 71.959 7.15 2.86 13.81 7.1903 20.92 9.9203 59.5-67.02 122.3-133.07 182.7-200.13 130.74-140.92 259.94-284.16 390.5-424.75-9.72-7.38 4.8097-9.7003 10.88-11.92 6.84-8.45 15.92-15.029 21.75-24.539 1.17-13.01-2.3003-27.32-3.4703-39.27zm369.62 40.95c-9.96 2.51-23.34-0.43062-31.52 4.5594 4.47 36.2 2.6212 73.85 8.8312 110.02 8.64-2.35 17.439-2.7497 26.509-1.8797-0.29-37.6-4.0503-75.15-3.8203-112.7zm878.55 92.909c-50.56 1.81-99.619 18.111-150.24 18.891-64.1 6.67-128.26 13.7-192.44 20.7-64.85 11.31-131.09 8.99-196.03 19.25-54.8 3.75-108.38 14.829-162.82 21.059-39.93 8.96-81.161 5.5997-121.04 14.03-28.11 2.25-56.26 6.9612-84.35 10.531-59.93 10.38-121.63 11.619-181.05 23.019-31.79 2.47-62.269 12.431-93.559 17.781 9.73 13.63 28.679 19.119 44.609 15.309 368.3-51.38 736.62-102.64 1104.9-154.21 10.65-1.9 22.34-0.62093 32.02-6.3609zm-846.4 705.32c-12.65 2.32-24.939 6.3794-37.709 8.1094 0.78 50.1 14.1 98.981 17.28 149.03 5.61 10.86-5.8494-2.0809-2.7594 5.1391 18.55 342.37 30.18 685.06 37.58 1027.7-0.02 29.85 0.91 59.69 5.95 89.17 1.29 52.52 3.16 105.55 15 156.74 1.9 8.27 8.5003-2.5294 10.32-5.8094-6.99-96.87-3.8906-192.45-10.441-289.27-0.42-20.97 5.8597-41.62 4.0297-62.68-7.9-132.22-7.2797-265.41-16.98-397.18-1.17-63.7-5.0697-127.33-7.6797-190.98 3.54-85.25-9.3406-170.95-5.3406-255.85-1.65-78.07-6.85-156.03-9.25-234.09z" fill="#fff"/>
  </g>
  <text style="fill: black; font-family: Arial, sans-serif; font-size: 28px; white-space: pre;" transform="matrix(1.345304, 0, 0, 1.345304, -91.978989, -42.511326)"><textPath xlink:href="#path-0">Back to index</textPath></text>
</svg>